<svg width="30" height="18" viewBox="0 0 30 18" fill="none" xmlns="http://www.w3.org/2000/svg">
<path fill-rule="evenodd" clip-rule="evenodd" d="M0.777856 1.88911C0.777856 0.907266 1.57379 0.111328 2.55563 0.111328H27.4445C28.4264 0.111328 29.2223 0.907266 29.2223 1.88911C29.2223 2.87095 28.4264 3.66688 27.4445 3.66688H2.55563C1.57379 3.66688 0.777856 2.87095 0.777856 1.88911ZM0.777771 9C0.777771 8.01816 1.57371 7.22222 2.55555 7.22222H27.4444C28.4263 7.22222 29.2222 8.01816 29.2222 9C29.2222 9.98184 28.4263 10.7778 27.4444 10.7778H2.55555C1.57371 10.7778 0.777771 9.98184 0.777771 9ZM2.55555 14.3333C1.57371 14.3333 0.777771 15.1293 0.777771 16.1111C0.777771 17.093 1.57371 17.8889 2.55555 17.8889H27.4444C28.4263 17.8889 29.2222 17.093 29.2222 16.1111C29.2222 15.1293 28.4263 14.3333 27.4444 14.3333H2.55555Z" fill="white"/>
</svg>
