<svg width="288" height="93" viewBox="0 0 288 93" fill="none" xmlns="http://www.w3.org/2000/svg">
<g opacity="0.3">
<path fill-rule="evenodd" clip-rule="evenodd" d="M25.1224 92.2709L18.1655 92.2709C17.5857 92.2709 16.8127 92.2709 16.0397 92.0776L13.914 92.0776C13.141 92.0776 11.9815 91.6911 11.4017 90.7249C10.822 89.7586 10.822 88.9856 10.822 88.2126L10.822 86.0869C10.822 85.5071 10.6287 84.9274 10.4355 84.3476C9.85572 83.3814 9.27597 83.1882 8.30972 83.7679C7.72997 84.1544 7.15022 84.5409 6.57047 85.1206C5.99072 85.7004 5.21772 86.2801 4.05823 86.4734C2.89873 86.6666 1.54598 86.0869 0.966229 85.1206C0.19323 84.1544 -1.88948e-05 83.1882 -1.88526e-05 82.2219C0.36448 73.96 0.347035 66.3092 0.331865 59.6537C0.322904 55.7233 0.314733 52.14 0.386484 48.9829L0.386484 46.0842L0.386484 43.1855C0.314734 40.0284 0.322905 36.4451 0.331866 32.5147C0.347037 25.8592 0.364482 18.2084 -1.56934e-05 9.94651C0.193233 8.98026 0.386486 8.01401 0.966232 7.04776C1.54598 6.08151 2.89873 5.50176 4.05823 5.69501C5.21773 5.88826 5.99073 6.46801 6.57047 7.04776C6.90939 7.30195 7.17401 7.51899 7.4132 7.71517C7.71954 7.96643 7.98416 8.18347 8.30972 8.40051C9.27597 9.17351 9.85572 8.78701 10.4355 7.82076C10.6287 7.24101 10.822 6.66126 10.822 6.08151L10.822 3.95576C10.822 3.18277 10.822 2.40977 11.4017 1.44352C11.9815 0.284019 13.141 0.0907698 13.914 0.0907698C14.446 -0.0422367 14.978 0.00784366 15.447 0.0519931C15.6595 0.0719899 15.859 0.0907699 16.0397 0.0907699L17.9722 0.09077L24.9292 0.0907703L26.6684 0.0907704L28.4077 0.0907705L35.3647 0.0907708L37.2972 0.0907709L39.4229 0.090771C40.1959 0.090771 41.1622 0.47727 41.9352 1.44352C42.5149 2.40977 42.5149 3.18277 42.5149 3.95577L42.5149 6.08151C42.5149 6.66126 42.5149 7.24101 42.7082 7.82076C43.2879 8.78701 43.8677 9.17351 44.8339 8.40051C45.4137 8.20726 45.9934 7.62752 46.5732 7.04777L46.5732 7.04776C47.1529 6.46801 47.9259 5.88826 49.0854 5.69501C50.2449 5.50176 51.5977 6.08151 52.1774 7.04776C52.9504 8.01401 53.1437 8.98026 53.1437 9.94651C52.6736 20.6014 52.7117 30.24 52.7429 38.1411C52.7502 39.9846 52.7572 41.7335 52.7572 43.3787C52.5639 44.345 52.5639 45.3112 52.5639 46.2775C52.7572 47.2437 52.7572 48.21 52.7572 49.1762C52.9314 53.0106 52.9878 57.4737 53.0504 62.4238C53.1265 68.4509 53.2118 75.2 53.5301 82.4152C53.3369 83.3814 53.1436 84.3476 52.5639 85.3139C51.9842 86.2802 50.6314 86.8599 49.4719 86.6666C48.3124 86.4734 47.5394 85.8936 46.9597 85.3139C46.6207 85.0597 46.3561 84.8427 46.117 84.6465C45.8106 84.3952 45.546 84.1782 45.2204 83.9612C44.2542 83.1882 43.6744 83.5747 43.0947 84.5409C42.9014 85.1207 42.7082 85.7004 42.7082 86.2802L42.7082 88.4059C42.7082 89.1789 42.7082 89.9519 42.1284 90.9181C41.5487 92.0776 40.3892 92.2709 39.6162 92.2709C39.0841 92.4039 38.5521 92.3538 38.0831 92.3097C37.8707 92.2897 37.6712 92.2709 37.4904 92.2709L35.5579 92.2709L28.6009 92.2709L26.8617 92.2709L25.1224 92.2709ZM2.65828 54.3291C2.8878 62.1381 3.17192 71.8047 2.70548 82.2219C2.70548 83.7679 3.47847 84.7342 4.44473 84.3476C4.83122 84.3476 5.41097 83.9612 5.99072 83.5747L6.18398 83.3814C5.60423 79.9029 5.21772 64.4429 5.21773 45.891C5.21773 27.9187 5.41098 12.8453 5.99073 8.78701C5.99073 8.59376 5.79748 8.59376 5.79748 8.59376C5.21773 8.20726 4.63798 7.82076 4.25148 7.82076C3.47848 7.62751 2.70548 8.59376 2.70548 9.94651C3.17192 20.3637 2.8878 30.0303 2.65829 37.8393C2.60253 39.7363 2.55 41.5236 2.51223 43.1855L2.51223 46.0842L2.51223 48.9829C2.55 50.6448 2.60253 52.4321 2.65828 54.3291ZM50.8247 43.1855C50.6314 34.8757 50.4382 22.8942 51.0179 10.1398C51.0179 8.59376 50.2449 7.62751 49.4719 7.82076C49.4 7.85673 49.3213 7.8927 49.2372 7.93117C48.8696 8.09935 48.3977 8.31517 47.9259 8.78701C47.7327 8.98026 47.3462 9.36676 46.9597 9.56001C47.3462 13.2318 47.7327 28.112 47.7327 46.0842C47.7327 64.0564 47.5394 79.1299 46.9597 82.8017C47.1861 83.0281 47.4125 83.1882 47.6 83.3208C47.7327 83.4146 47.8459 83.4946 47.9259 83.5747C48.5057 83.9612 49.0854 84.3476 49.4719 84.3476C50.2449 84.5409 51.0179 83.5747 51.0179 82.2219C50.4382 69.2742 50.6314 57.4859 50.8247 48.983L50.8247 46.0842L50.8247 43.1855ZM21.4507 82.6084L23.7697 83.1882L23.7698 83.1882C24.9293 83.3814 26.0887 83.5747 27.2482 83.5747C28.4077 83.5747 29.7604 83.3814 30.9199 83.1882L33.2389 82.6084C34.2052 82.4152 34.7849 82.0287 34.5917 82.0287L34.3984 81.8354C34.3184 81.8354 34.2052 81.8022 34.0726 81.7634C33.885 81.7085 33.6586 81.6422 33.4322 81.6422C33.2244 81.5902 32.9608 81.5522 32.6638 81.5094C31.856 81.3931 30.8015 81.2411 29.9537 80.6759C29.3739 80.0962 28.7942 79.5164 28.6009 78.7434C28.2144 77.9704 28.4077 77.0042 28.9874 76.2312C29.8587 75.2147 30.839 74.8529 31.6006 74.5719C31.8525 74.4789 32.0805 74.3948 32.2727 74.2987C33.0457 73.9122 33.4322 73.1392 33.6254 72.1729C33.8187 71.2067 33.6254 70.4337 32.8524 69.8539C32.5598 69.5613 32.2396 69.2964 31.9021 69.0173C31.348 68.559 30.7475 68.0623 30.1469 67.3417C29.7604 66.7619 29.3739 66.1822 29.1807 65.4092C29.1807 64.6362 29.3739 63.6699 29.7604 63.0902C30.5334 62.008 31.5538 61.6679 32.4257 61.3772C32.6437 61.3046 32.8524 61.235 33.0457 61.1577C33.4322 60.9644 34.0119 60.7712 34.0119 60.7712L34.0119 60.5779C33.8187 59.9982 33.4322 59.8049 32.4659 59.8049L31.1132 59.8049C30.3402 59.8049 29.5672 59.6117 29.3739 58.8387L29.3739 57.8724L29.3739 57.2927C29.3739 57.0994 29.4223 56.9062 29.4706 56.7129C29.5189 56.5197 29.5672 56.3264 29.5672 56.1332L29.5672 55.5534L27.8279 55.5534C26.8617 55.5534 25.8954 55.5534 24.9292 55.3602C25.1224 55.5534 25.1224 55.9399 25.1224 56.1332C25.1224 56.3264 25.1708 56.5197 25.2191 56.7129C25.2674 56.9062 25.3157 57.0994 25.3157 57.2927L25.3157 57.8724C25.3157 58.0094 25.3399 58.122 25.3627 58.2276C25.4041 58.4201 25.4405 58.5891 25.3157 58.8387C25.1224 59.4184 24.3494 59.8049 23.5764 59.8049L22.2237 59.8049C21.4507 59.8049 20.8709 59.9982 20.6777 60.5779C20.4845 60.7712 20.6777 60.7712 20.6777 60.7712C20.6777 60.7712 21.0642 60.9644 21.644 61.1577C21.8372 61.235 22.0459 61.3046 22.2639 61.3772C23.1358 61.6679 24.1562 62.008 24.9292 63.0902C25.5089 63.6699 25.7022 64.6362 25.5089 65.4092C25.3157 66.1822 24.9292 66.7619 24.5427 67.3417C23.9422 68.0623 23.3417 68.559 22.7875 69.0173C22.4501 69.2964 22.1298 69.5613 21.8372 69.8539C21.2574 70.4337 20.8709 71.2067 21.0642 72.1729C21.0642 73.1392 21.6439 73.9122 22.4169 74.2987C22.6091 74.3948 22.8371 74.4789 23.0891 74.5719C23.8506 74.8529 24.8309 75.2147 25.7022 76.2312C26.2819 77.0042 26.2819 77.9704 26.0887 78.7434C25.8954 79.5164 25.3157 80.2894 24.7359 80.6759C23.5764 81.6422 22.0304 81.6422 21.2574 81.6422C20.6777 81.6422 20.4844 81.6422 20.2912 81.8354C20.098 81.8354 20.098 82.0287 20.098 82.0287C20.098 82.0287 20.6777 82.4152 21.4507 82.6084ZM22.0258 11.0455C22.8336 11.1619 23.8881 11.3138 24.7359 11.879C25.3157 12.2655 25.8954 12.8453 26.0887 13.6183C26.2819 14.3913 26.2819 15.3575 26.0887 16.3237C25.2174 17.3402 24.2371 17.702 23.4755 17.983C23.2236 18.076 22.9956 18.1602 22.8035 18.2562C22.0305 18.6427 21.644 19.4157 21.4507 20.382C21.2575 21.3482 21.4507 22.1212 22.2237 22.701C22.5163 22.9936 22.8366 23.2585 23.174 23.5376C23.7282 23.9959 24.3287 24.4926 24.9292 25.2132C25.3157 25.793 25.7022 26.3727 25.8954 27.1457C25.8954 27.9187 25.7022 28.885 25.3157 29.4647C24.5427 30.5469 23.5223 30.887 22.6504 31.1777C22.4324 31.2504 22.2237 31.3199 22.0304 31.3972C21.6439 31.5905 21.0642 31.7837 21.0642 31.7837L21.0642 31.977C21.2574 32.5567 21.644 32.75 22.6102 32.75L23.9629 32.75C24.7359 32.75 25.5089 32.9432 25.7022 33.7162L25.7022 34.6825L25.7022 35.2622C25.7022 35.4555 25.6539 35.6487 25.6056 35.842C25.5573 36.0352 25.5089 36.2285 25.5089 36.4217C25.3157 36.8082 25.3157 37.0015 25.3157 37.388C26.2819 37.1947 27.2482 37.1947 28.2144 37.1947L28.2144 37.1947L29.9537 37.1947C29.7604 37.0015 29.7604 36.615 29.7604 36.4217C29.7604 36.2285 29.7121 36.0352 29.6638 35.842C29.6155 35.6487 29.5672 35.4555 29.5672 35.2622L29.5672 34.6825C29.5672 34.5456 29.5429 34.4329 29.5202 34.3273C29.4788 34.1348 29.4424 33.9658 29.5672 33.7162C29.7604 33.1365 30.5334 32.75 31.3064 32.75L32.6592 32.75C33.4322 32.75 34.0119 32.5567 34.2052 31.977C34.3984 31.7837 34.2052 31.7837 34.2052 31.7837C34.2052 31.7837 33.8187 31.5905 33.2389 31.3972C33.0457 31.3199 32.837 31.2504 32.619 31.1777C31.747 30.887 30.7267 30.5469 29.9537 29.4647C29.3739 28.885 29.1807 27.9187 29.3739 27.1457C29.5672 26.3727 29.9537 25.793 30.3402 25.2132C30.9407 24.4926 31.5412 23.9959 32.0953 23.5376C32.4328 23.2585 32.7531 22.9936 33.0457 22.701C33.6254 22.1212 34.0119 21.3482 33.8187 20.382C33.8187 19.4157 33.2389 18.6427 32.4659 18.2562C32.2738 18.1602 32.0458 18.076 31.7938 17.983C31.0323 17.702 30.0519 17.3402 29.1807 16.3237C28.6009 15.5507 28.6009 14.5845 28.7942 13.8115C28.9874 13.0385 29.5672 12.2655 30.1469 11.879C31.3064 10.9128 32.8524 10.9128 33.6254 10.9128C34.2052 10.9128 34.3984 10.9128 34.5917 10.7195C34.7849 10.7195 34.7849 10.5263 34.7849 10.5263C34.7849 10.5263 34.2052 10.1398 33.4322 9.94651L31.1132 9.36676C30.9414 9.34221 30.7727 9.31767 30.6067 9.29352C29.4659 9.12753 28.4537 8.98026 27.4414 8.98026C26.2819 8.98026 24.9292 9.17351 23.7697 9.36676L21.4507 9.94651C20.4845 10.1398 19.9047 10.5263 20.098 10.5263L20.2912 10.7195C20.3712 10.7195 20.4845 10.7527 20.6171 10.7915C20.8046 10.8464 21.031 10.9128 21.2574 10.9128C21.4652 10.9647 21.7288 11.0027 22.0258 11.0455ZM39.1839 48.6442C38.6688 49.7269 37.6932 50.651 36.7175 51.3014C34.5012 52.7789 32.1085 53.3739 30.5513 53.7611C30.4791 53.779 30.4087 53.7965 30.3403 53.8136C29.6415 53.9883 29.0611 54.0841 28.6349 54.1544C28.1182 54.2396 27.828 54.2875 27.828 54.3934C27.828 54.2001 26.8618 54.0069 24.9293 53.8136C24.8608 53.7965 24.7904 53.779 24.7182 53.7611C23.1611 53.3739 20.7683 52.7789 18.552 51.3014C17.5858 50.5284 16.4263 49.3689 15.8465 48.0162C15.2668 46.6634 15.46 44.9242 16.6195 43.5714C18.9385 40.6727 23.3833 39.3199 27.6348 39.3199C27.7009 39.3228 27.7671 39.3259 27.8333 39.3293C27.8959 39.3261 27.9586 39.3232 28.0212 39.3205C32.2727 39.3205 36.7174 40.6732 39.0364 43.572C39.8094 44.7315 40.1959 46.4707 39.6162 47.8235C39.4951 48.1061 39.3486 48.3802 39.1839 48.6442Z" fill="#FF7A00"/>
<path d="M98.7492 12.492C101.481 13.0472 103.524 14.1312 104.877 15.7439C106.229 17.3302 106.932 19.0223 106.985 20.8201C106.985 20.8465 106.985 20.873 106.985 20.8994C106.985 20.9258 106.985 20.9523 106.985 20.9787C106.959 23.1466 106.017 25.1295 104.16 26.9273C102.33 28.7251 99.6378 29.624 96.0834 29.624L79.5316 29.6636C79.0011 29.6372 78.5899 29.5182 78.2981 29.3067C78.0329 29.0952 77.887 28.8573 77.8605 28.5929C77.8605 28.5665 77.8605 28.54 77.8605 28.5136C77.8605 28.5136 77.8605 28.5004 77.8605 28.4739C77.8605 28.2095 78.0064 27.9584 78.2981 27.7204C78.6164 27.4561 79.0674 27.3239 79.6509 27.3239L79.9692 27.0463V2.6967C79.3857 2.6967 78.9215 2.57772 78.5767 2.33978C78.2584 2.10184 78.0727 1.83745 78.0196 1.54663C77.9931 1.5202 77.9798 1.49376 77.9798 1.46732C77.9798 1.41444 77.9798 1.37478 77.9798 1.34835C77.9798 1.08397 78.0992 0.85924 78.3379 0.674172C78.6032 0.462668 78.9878 0.356916 79.4918 0.356916H97.0781C99.9959 0.356916 102.211 1.00465 103.723 2.30012C105.235 3.56916 105.991 4.9836 105.991 6.54345C105.991 7.8918 105.394 9.14762 104.2 10.3109C103.007 11.4477 101.19 12.1748 98.7492 12.492ZM94.7306 25.8566V15.506C94.7306 15.0037 94.4919 14.6335 94.0144 14.3956C93.5635 14.1577 93.0595 14.0387 92.5025 14.0387C91.9454 14.0387 91.4415 14.1709 90.9905 14.4353C90.5396 14.6732 90.3141 15.0301 90.3141 15.506C90.3141 15.6118 90.3539 15.7043 90.4335 15.7836C90.5131 15.8629 90.6059 15.9422 90.712 16.0215C90.712 16.0215 90.712 16.0348 90.712 16.0612C90.7385 16.0612 90.7518 16.0612 90.7518 16.0612C90.8844 16.1405 90.9905 16.233 91.0701 16.3388C91.1762 16.4181 91.2293 16.5239 91.2293 16.6561V24.6272C91.2293 24.7329 91.1762 24.8387 91.0701 24.9444C90.9905 25.0502 90.8977 25.1427 90.7916 25.222C90.7651 25.222 90.7385 25.2353 90.712 25.2617C90.6059 25.341 90.5131 25.4203 90.4335 25.4996C90.3539 25.5789 90.3141 25.6715 90.3141 25.7772C90.3141 26.2796 90.5396 26.6497 90.9905 26.8876C91.4415 27.0991 91.9322 27.2049 92.4627 27.2049C92.4892 27.2049 92.5025 27.2049 92.5025 27.2049C92.529 27.2049 92.5555 27.2049 92.5821 27.2049C93.1126 27.1785 93.6033 27.0463 94.0542 26.8083C94.5051 26.5704 94.7306 26.2531 94.7306 25.8566ZM94.7306 10.1523V4.20367C94.7306 3.70135 94.4919 3.33121 94.0144 3.09327C93.5635 2.85532 93.0595 2.73635 92.5025 2.73635C91.9454 2.73635 91.4415 2.86854 90.9905 3.13293C90.5396 3.37087 90.3141 3.72778 90.3141 4.20367C90.3141 4.30943 90.3539 4.40196 90.4335 4.48127C90.5131 4.56059 90.6059 4.6399 90.712 4.71922C90.7385 4.71922 90.7518 4.71922 90.7518 4.71922C90.7518 4.71922 90.7651 4.73244 90.7916 4.75887C90.8977 4.83819 90.9905 4.9175 91.0701 4.99682C91.1762 5.07613 91.2293 5.18189 91.2293 5.31408V8.92289C91.2293 9.02864 91.1895 9.12117 91.1099 9.20049C91.0303 9.2798 90.9375 9.35912 90.8314 9.43843C90.8314 9.43843 90.8181 9.45165 90.7916 9.47809C90.659 9.5574 90.5396 9.64994 90.4335 9.75569C90.3539 9.83501 90.3141 9.94076 90.3141 10.073C90.3141 10.5753 90.5396 10.9454 90.9905 11.1834C91.4415 11.3949 91.9322 11.5006 92.4627 11.5006C92.4892 11.5006 92.5025 11.5006 92.5025 11.5006C92.529 11.5006 92.5555 11.5006 92.5821 11.5006C93.1126 11.4742 93.6033 11.342 94.0542 11.104C94.5051 10.8661 94.7306 10.5488 94.7306 10.1523Z" fill="#FF7A00"/>
<path d="M137.848 28.5136C137.848 28.778 137.676 29.0159 137.331 29.2274C137.013 29.4654 136.655 29.5976 136.257 29.624C136.23 29.624 136.204 29.624 136.177 29.624C136.177 29.624 136.164 29.624 136.138 29.624L124.44 29.6636C124.44 29.6372 124.347 29.5843 124.161 29.505C124.002 29.4521 123.817 29.386 123.604 29.3067C123.366 29.201 123.153 29.0688 122.968 28.9102C122.809 28.778 122.729 28.6326 122.729 28.4739C122.729 28.1831 122.888 27.9319 123.206 27.7204C123.551 27.4825 123.962 27.3635 124.44 27.3635H125.395L124.559 23.834H117.477L116.562 27.3635H117.517C117.968 27.3635 118.366 27.4693 118.71 27.6808C119.055 27.8923 119.228 28.1567 119.228 28.4739C119.228 28.7648 119.055 29.0291 118.71 29.2671C118.366 29.505 117.968 29.624 117.517 29.624L111.509 29.6636C111.429 29.6372 111.31 29.5976 111.151 29.5447C111.018 29.5182 110.872 29.4654 110.713 29.386C110.474 29.2803 110.262 29.1481 110.076 28.9895C109.891 28.8308 109.798 28.659 109.798 28.4739C109.798 28.1567 109.97 27.8923 110.315 27.6808C110.66 27.4693 111.058 27.3635 111.509 27.3635H112.503L118.79 2.61738H117.318C116.84 2.61738 116.429 2.51163 116.084 2.30012C115.766 2.06218 115.607 1.78458 115.607 1.46732C115.607 1.15006 115.766 0.885678 116.084 0.674172C116.429 0.462668 116.84 0.356916 117.318 0.356916H128.1C128.578 0.356916 128.976 0.462668 129.294 0.674172C129.639 0.885678 129.811 1.15006 129.811 1.46732L135.779 27.3635H136.138C136.615 27.3635 137.013 27.4825 137.331 27.7204C137.676 27.9319 137.848 28.1831 137.848 28.4739V28.5136ZM124.042 21.7322L121.734 11.6989C121.708 11.5403 121.628 11.4213 121.496 11.342C121.389 11.2627 121.27 11.223 121.137 11.223C121.111 11.223 121.084 11.223 121.058 11.223C121.058 11.223 121.045 11.2362 121.018 11.2627C120.912 11.2891 120.806 11.342 120.7 11.4213C120.62 11.5006 120.567 11.5931 120.541 11.6989L117.994 21.7322H124.042Z" fill="#FF7A00"/>
<path d="M165.287 28.4343C165.287 28.6458 165.181 28.8441 164.969 29.0291C164.756 29.2142 164.518 29.3596 164.252 29.4654C164.12 29.5182 164 29.5579 163.894 29.5843C163.788 29.6108 163.682 29.624 163.576 29.624C162.276 29.624 160.99 29.624 159.717 29.624C158.443 29.624 157.17 29.624 155.897 29.624C154.862 29.624 154.146 29.2274 153.748 28.4343C153.351 27.6676 153.112 26.8083 153.032 25.8566C153.006 25.5657 152.979 25.2749 152.953 24.9841C152.953 24.6933 152.953 24.4157 152.953 24.1513C152.953 23.9927 152.953 23.834 152.953 23.6754C152.953 23.5168 152.966 23.3714 152.992 23.2392C152.992 23.107 152.992 22.988 152.992 22.8823C152.992 22.7501 152.992 22.6311 152.992 22.5253C152.992 21.4149 152.634 20.7011 151.918 20.3838C151.229 20.0666 150.26 19.9212 149.014 19.9476V27.0463L149.451 27.2842C149.902 27.2842 150.3 27.4032 150.645 27.6411C150.99 27.8791 151.162 28.1302 151.162 28.3946C151.162 28.7383 150.99 29.0291 150.645 29.2671C150.3 29.505 149.902 29.624 149.451 29.624L138.748 29.6636C138.244 29.6372 137.833 29.505 137.515 29.2671C137.197 29.0291 137.037 28.7383 137.037 28.3946C137.037 28.1302 137.197 27.8791 137.515 27.6411C137.833 27.4032 138.244 27.2842 138.748 27.2842L139.067 27.0463V2.89498C138.961 2.84211 138.854 2.78923 138.748 2.73635C138.642 2.68348 138.523 2.64382 138.39 2.61738C138.364 2.59094 138.324 2.57772 138.271 2.57772C138.218 2.55129 138.165 2.53807 138.112 2.53807C137.82 2.43231 137.555 2.32656 137.316 2.22081C137.104 2.08862 136.998 1.83745 136.998 1.46732C136.998 1.15006 137.157 0.885678 137.475 0.674172C137.793 0.43623 138.191 0.317259 138.669 0.317259H153.47C156.733 0.317259 159.292 1.30869 161.149 3.29155C163.032 5.27442 164.054 7.45557 164.213 9.83501C164.239 9.9672 164.252 10.0994 164.252 10.2316C164.252 10.3373 164.252 10.4563 164.252 10.5885C164.252 12.5185 163.629 14.3031 162.382 15.9422C161.162 17.5814 159.226 18.6389 156.573 19.1148V19.3924L158.284 19.7493C158.443 19.7758 158.603 19.8154 158.762 19.8683C158.947 19.9212 159.133 19.9873 159.319 20.0666C160.221 20.3838 161.056 20.8465 161.825 21.4546C162.595 22.0362 163.046 22.6443 163.178 23.2788C163.205 23.3317 163.218 23.3846 163.218 23.4375C163.218 23.4903 163.218 23.5432 163.218 23.5961C163.218 23.649 163.205 23.7415 163.178 23.8737C163.178 24.0059 163.178 24.1645 163.178 24.3496C163.178 24.5082 163.165 24.6801 163.138 24.8651C163.138 25.0237 163.138 25.1956 163.138 25.3807C163.138 25.4071 163.138 25.4335 163.138 25.46C163.138 25.4864 163.138 25.5129 163.138 25.5393C163.138 25.9623 163.165 26.3457 163.218 26.6894C163.271 27.0331 163.39 27.2313 163.576 27.2842C163.629 27.3106 163.669 27.3371 163.695 27.3635C163.748 27.3635 163.802 27.3635 163.855 27.3635C164.226 27.4957 164.558 27.6411 164.849 27.7998C165.141 27.9584 165.287 28.1567 165.287 28.3946V28.4343ZM152.714 16.0612V4.48127C152.714 3.97895 152.475 3.60881 151.998 3.37087C151.547 3.13292 151.043 3.01395 150.486 3.01395C149.929 3.01395 149.425 3.14614 148.974 3.41053C148.523 3.64847 148.297 4.00538 148.297 4.48127C148.297 4.58703 148.337 4.67956 148.417 4.75887C148.496 4.83819 148.589 4.9175 148.695 4.99682C148.695 4.99682 148.695 5.01004 148.695 5.03647C148.722 5.03647 148.735 5.03647 148.735 5.03647C148.868 5.11579 148.974 5.20832 149.053 5.31408C149.16 5.39339 149.213 5.49914 149.213 5.63134V14.7922C149.213 14.8979 149.16 15.0037 149.053 15.1094C148.974 15.2152 148.881 15.3077 148.775 15.387C148.642 15.4663 148.523 15.5589 148.417 15.6646C148.337 15.7439 148.297 15.8497 148.297 15.9819C148.297 16.4842 148.523 16.8543 148.974 17.0923C149.425 17.3038 149.915 17.4095 150.446 17.4095C150.473 17.4095 150.486 17.4095 150.486 17.4095C150.512 17.4095 150.539 17.4095 150.565 17.4095C151.096 17.3831 151.587 17.2509 152.038 17.013C152.488 16.775 152.714 16.4578 152.714 16.0612Z" fill="#FF7A00"/>
<path d="M189.049 12.492C191.782 13.0472 193.824 14.1312 195.177 15.7439C196.53 17.3302 197.233 19.0223 197.286 20.8201C197.286 20.8465 197.286 20.873 197.286 20.8994C197.286 20.9258 197.286 20.9523 197.286 20.9787C197.259 23.1466 196.317 25.1295 194.461 26.9273C192.63 28.7251 189.938 29.624 186.384 29.624L169.832 29.6636C169.301 29.6372 168.89 29.5182 168.598 29.3067C168.333 29.0952 168.187 28.8573 168.161 28.5929C168.161 28.5665 168.161 28.54 168.161 28.5136C168.161 28.5136 168.161 28.5004 168.161 28.4739C168.161 28.2095 168.307 27.9584 168.598 27.7204C168.917 27.4561 169.368 27.3239 169.951 27.3239L170.269 27.0463V2.6967C169.686 2.6967 169.222 2.57772 168.877 2.33978C168.559 2.10184 168.373 1.83745 168.32 1.54663C168.293 1.5202 168.28 1.49376 168.28 1.46732C168.28 1.41444 168.28 1.37478 168.28 1.34835C168.28 1.08397 168.399 0.85924 168.638 0.674172C168.903 0.462668 169.288 0.356916 169.792 0.356916H187.378C190.296 0.356916 192.511 1.00465 194.023 2.30012C195.535 3.56916 196.291 4.9836 196.291 6.54345C196.291 7.8918 195.694 9.14762 194.5 10.3109C193.307 11.4477 191.49 12.1748 189.049 12.492ZM185.031 25.8566V15.506C185.031 15.0037 184.792 14.6335 184.315 14.3956C183.864 14.1577 183.36 14.0387 182.803 14.0387C182.246 14.0387 181.742 14.1709 181.291 14.4353C180.84 14.6732 180.614 15.0301 180.614 15.506C180.614 15.6118 180.654 15.7043 180.734 15.7836C180.813 15.8629 180.906 15.9422 181.012 16.0215C181.012 16.0215 181.012 16.0348 181.012 16.0612C181.039 16.0612 181.052 16.0612 181.052 16.0612C181.185 16.1405 181.291 16.233 181.37 16.3388C181.476 16.4181 181.529 16.5239 181.529 16.6561V24.6272C181.529 24.7329 181.476 24.8387 181.37 24.9444C181.291 25.0502 181.198 25.1427 181.092 25.222C181.065 25.222 181.039 25.2353 181.012 25.2617C180.906 25.341 180.813 25.4203 180.734 25.4996C180.654 25.5789 180.614 25.6715 180.614 25.7772C180.614 26.2796 180.84 26.6497 181.291 26.8876C181.742 27.0991 182.232 27.2049 182.763 27.2049C182.789 27.2049 182.803 27.2049 182.803 27.2049C182.829 27.2049 182.856 27.2049 182.882 27.2049C183.413 27.1785 183.904 27.0463 184.354 26.8083C184.805 26.5704 185.031 26.2531 185.031 25.8566ZM185.031 10.1523V4.20367C185.031 3.70135 184.792 3.33121 184.315 3.09327C183.864 2.85532 183.36 2.73635 182.803 2.73635C182.246 2.73635 181.742 2.86854 181.291 3.13293C180.84 3.37087 180.614 3.72778 180.614 4.20367C180.614 4.30943 180.654 4.40196 180.734 4.48127C180.813 4.56059 180.906 4.6399 181.012 4.71922C181.039 4.71922 181.052 4.71922 181.052 4.71922C181.052 4.71922 181.065 4.73244 181.092 4.75887C181.198 4.83819 181.291 4.9175 181.37 4.99682C181.476 5.07613 181.529 5.18189 181.529 5.31408V8.92289C181.529 9.02864 181.49 9.12117 181.41 9.20049C181.331 9.2798 181.238 9.35912 181.132 9.43843C181.132 9.43843 181.118 9.45165 181.092 9.47809C180.959 9.5574 180.84 9.64994 180.734 9.75569C180.654 9.83501 180.614 9.94076 180.614 10.073C180.614 10.5753 180.84 10.9454 181.291 11.1834C181.742 11.3949 182.232 11.5006 182.763 11.5006C182.789 11.5006 182.803 11.5006 182.803 11.5006C182.829 11.5006 182.856 11.5006 182.882 11.5006C183.413 11.4742 183.904 11.342 184.354 11.104C184.805 10.8661 185.031 10.5488 185.031 10.1523Z" fill="#FF7A00"/>
<path d="M222.34 25.222L221.584 28.5136C221.557 28.5665 221.531 28.6326 221.504 28.7119C221.504 28.8176 221.491 28.9102 221.464 28.9895C221.358 29.2803 221.186 29.5447 220.947 29.7826C220.708 30.0206 220.363 30.1395 219.913 30.1395C219.674 30.1395 219.448 30.1263 219.236 30.0999C219.024 30.0734 218.825 30.0338 218.639 29.9809C218.586 29.9545 218.533 29.928 218.48 29.9016C218.427 29.9016 218.374 29.9016 218.321 29.9016C218.056 29.8487 217.777 29.7958 217.485 29.743C217.22 29.6901 216.889 29.6636 216.491 29.6636L201.53 29.7033C201.53 29.6769 201.438 29.624 201.252 29.5447C201.093 29.4918 200.907 29.4125 200.695 29.3067C200.456 29.201 200.244 29.0688 200.058 28.9102C199.899 28.778 199.82 28.6326 199.82 28.4739C199.82 28.1831 199.979 27.9319 200.297 27.7204C200.642 27.4825 201.053 27.3635 201.53 27.3635L202.127 27.1652V2.93464L201.53 2.6967C201.504 2.6967 201.398 2.67026 201.212 2.61738C201.053 2.5645 200.881 2.48519 200.695 2.37944C200.483 2.27368 200.284 2.15471 200.098 2.02252C199.912 1.86389 199.82 1.69204 199.82 1.50698C199.82 1.18972 199.979 0.925336 200.297 0.713831C200.642 0.502325 201.053 0.396572 201.53 0.396572H214.74C214.873 0.396572 215.019 0.396572 215.178 0.396572C215.337 0.370135 215.496 0.343697 215.655 0.317259C215.735 0.290819 215.814 0.2776 215.894 0.2776C216 0.251162 216.093 0.224724 216.172 0.198286C216.332 0.171848 216.477 0.14541 216.61 0.11897C216.743 0.0925325 216.836 0.0660946 216.889 0.0396568C216.915 0.0396568 216.942 0.0396568 216.968 0.0396568C217.021 0.0132189 217.061 0 217.088 0C217.114 0 217.141 0 217.167 0C217.22 0 217.26 0 217.287 0C217.393 0 217.499 0.0132189 217.605 0.0396568C217.711 0.0396568 217.83 0.0528757 217.963 0.0793136C218.281 0.185067 218.586 0.343696 218.878 0.555202C219.196 0.766708 219.422 1.01787 219.554 1.30869L221.345 4.75887C221.398 4.83819 221.438 4.9175 221.464 4.99682C221.491 5.07613 221.491 5.15545 221.464 5.23476C221.464 5.44627 221.371 5.65777 221.186 5.86928C221.027 6.05435 220.801 6.18654 220.509 6.26585C220.456 6.29229 220.39 6.31873 220.31 6.34516C220.257 6.34516 220.204 6.34516 220.151 6.34516C220.072 6.3716 219.992 6.38482 219.913 6.38482C219.859 6.38482 219.806 6.38482 219.753 6.38482C219.409 6.38482 219.09 6.33195 218.798 6.22619C218.507 6.094 218.308 5.93537 218.202 5.75031L216.292 2.6967H213.427L213.069 3.01395V12.0558H216.133C216.106 12.0029 216.093 11.9633 216.093 11.9368C216.093 11.884 216.093 11.8443 216.093 11.8179C216.093 11.765 216.093 11.7253 216.093 11.6989C216.119 11.646 216.133 11.5931 216.133 11.5403C216.186 11.3816 216.279 11.2362 216.411 11.104C216.57 10.9454 216.729 10.8264 216.889 10.7471C216.995 10.6942 217.088 10.6678 217.167 10.6678C217.273 10.6414 217.379 10.6282 217.485 10.6282C217.538 10.6282 217.592 10.6282 217.645 10.6282C217.698 10.6282 217.751 10.6414 217.804 10.6678C218.016 10.6942 218.215 10.7471 218.401 10.8264C218.586 10.8793 218.745 10.9586 218.878 11.0644C218.984 11.1173 219.064 11.1701 219.117 11.223C219.17 11.2495 219.21 11.2891 219.236 11.342L221.862 15.506C221.889 15.5324 221.902 15.5721 221.902 15.625C221.928 15.6514 221.942 15.6778 221.942 15.7043C221.968 15.7307 221.982 15.7704 221.982 15.8233C221.982 15.8497 221.982 15.8761 221.982 15.9026C221.982 16.1141 221.889 16.3256 221.703 16.5371C221.544 16.7222 221.292 16.8676 220.947 16.9733C220.894 16.9998 220.828 17.0262 220.748 17.0526C220.695 17.0526 220.642 17.0526 220.589 17.0526C220.509 17.0791 220.43 17.0923 220.35 17.0923C220.297 17.0923 220.244 17.0923 220.191 17.0923C219.846 17.0923 219.528 17.0262 219.236 16.894C218.971 16.7618 218.772 16.6032 218.639 16.4181L217.724 15.0698C217.565 14.7525 217.287 14.5542 216.889 14.4749C216.517 14.3956 215.947 14.3559 215.178 14.3559H213.069V27.3635H216.053C216.504 27.3635 216.862 27.2842 217.127 27.1256C217.393 26.967 217.592 26.7819 217.724 26.5704C217.751 26.5439 217.764 26.5175 217.764 26.4911C217.79 26.4646 217.817 26.4382 217.844 26.4118L219.196 24.2703C219.329 24.0588 219.541 23.9001 219.833 23.7944C220.125 23.6886 220.443 23.6357 220.788 23.6357C220.92 23.6357 221.04 23.6357 221.146 23.6357C221.279 23.6357 221.398 23.6622 221.504 23.7151C221.822 23.8208 222.048 23.9794 222.18 24.1909C222.313 24.4024 222.379 24.6272 222.379 24.8651C222.379 24.918 222.379 24.9841 222.379 25.0634C222.379 25.1163 222.366 25.1692 222.34 25.222Z" fill="#FF7A00"/>
<path d="M253.256 28.4343C253.256 28.6458 253.15 28.8441 252.938 29.0291C252.725 29.2142 252.487 29.3596 252.221 29.4654C252.089 29.5182 251.969 29.5579 251.863 29.5843C251.757 29.6108 251.651 29.624 251.545 29.624C250.245 29.624 248.959 29.624 247.686 29.624C246.412 29.624 245.139 29.624 243.866 29.624C242.831 29.624 242.115 29.2274 241.717 28.4343C241.319 27.6676 241.081 26.8083 241.001 25.8566C240.975 25.5657 240.948 25.2749 240.922 24.9841C240.922 24.6933 240.922 24.4157 240.922 24.1513C240.922 23.9927 240.922 23.834 240.922 23.6754C240.922 23.5168 240.935 23.3714 240.961 23.2392C240.961 23.107 240.961 22.988 240.961 22.8823C240.961 22.7501 240.961 22.6311 240.961 22.5253C240.961 21.4149 240.603 20.7011 239.887 20.3838C239.197 20.0666 238.229 19.9212 236.983 19.9476V27.0463L237.42 27.2842C237.871 27.2842 238.269 27.4032 238.614 27.6411C238.959 27.8791 239.131 28.1302 239.131 28.3946C239.131 28.7383 238.959 29.0291 238.614 29.2671C238.269 29.505 237.871 29.624 237.42 29.624L226.717 29.6636C226.213 29.6372 225.802 29.505 225.484 29.2671C225.165 29.0291 225.006 28.7383 225.006 28.3946C225.006 28.1302 225.165 27.8791 225.484 27.6411C225.802 27.4032 226.213 27.2842 226.717 27.2842L227.036 27.0463V2.89498C226.929 2.84211 226.823 2.78923 226.717 2.73635C226.611 2.68348 226.492 2.64382 226.359 2.61738C226.333 2.59094 226.293 2.57772 226.24 2.57772C226.187 2.55129 226.134 2.53807 226.081 2.53807C225.789 2.43231 225.524 2.32656 225.285 2.22081C225.073 2.08862 224.967 1.83745 224.967 1.46732C224.967 1.15006 225.126 0.885678 225.444 0.674172C225.762 0.43623 226.16 0.317259 226.638 0.317259H241.439C244.701 0.317259 247.261 1.30869 249.118 3.29155C251.001 5.27442 252.022 7.45557 252.182 9.83501C252.208 9.9672 252.221 10.0994 252.221 10.2316C252.221 10.3373 252.221 10.4563 252.221 10.5885C252.221 12.5185 251.598 14.3031 250.351 15.9422C249.131 17.5814 247.195 18.6389 244.542 19.1148V19.3924L246.253 19.7493C246.412 19.7758 246.571 19.8154 246.731 19.8683C246.916 19.9212 247.102 19.9873 247.288 20.0666C248.189 20.3838 249.025 20.8465 249.794 21.4546C250.564 22.0362 251.014 22.6443 251.147 23.2788C251.174 23.3317 251.187 23.3846 251.187 23.4375C251.187 23.4903 251.187 23.5432 251.187 23.5961C251.187 23.649 251.174 23.7415 251.147 23.8737C251.147 24.0059 251.147 24.1645 251.147 24.3496C251.147 24.5082 251.134 24.6801 251.107 24.8651C251.107 25.0237 251.107 25.1956 251.107 25.3807C251.107 25.4071 251.107 25.4335 251.107 25.46C251.107 25.4864 251.107 25.5129 251.107 25.5393C251.107 25.9623 251.134 26.3457 251.187 26.6894C251.24 27.0331 251.359 27.2313 251.545 27.2842C251.598 27.3106 251.638 27.3371 251.664 27.3635C251.717 27.3635 251.77 27.3635 251.823 27.3635C252.195 27.4957 252.526 27.6411 252.818 27.7998C253.11 27.9584 253.256 28.1567 253.256 28.3946V28.4343ZM240.683 16.0612V4.48127C240.683 3.97895 240.444 3.60881 239.967 3.37087C239.516 3.13292 239.012 3.01395 238.455 3.01395C237.898 3.01395 237.394 3.14614 236.943 3.41053C236.492 3.64847 236.266 4.00538 236.266 4.48127C236.266 4.58703 236.306 4.67956 236.386 4.75887C236.465 4.83819 236.558 4.9175 236.664 4.99682C236.664 4.99682 236.664 5.01004 236.664 5.03647C236.691 5.03647 236.704 5.03647 236.704 5.03647C236.837 5.11579 236.943 5.20832 237.022 5.31408C237.128 5.39339 237.181 5.49914 237.181 5.63134V14.7922C237.181 14.8979 237.128 15.0037 237.022 15.1094C236.943 15.2152 236.85 15.3077 236.744 15.387C236.611 15.4663 236.492 15.5589 236.386 15.6646C236.306 15.7439 236.266 15.8497 236.266 15.9819C236.266 16.4842 236.492 16.8543 236.943 17.0923C237.394 17.3038 237.884 17.4095 238.415 17.4095C238.441 17.4095 238.455 17.4095 238.455 17.4095C238.481 17.4095 238.508 17.4095 238.534 17.4095C239.065 17.3831 239.555 17.2509 240.006 17.013C240.457 16.775 240.683 16.4578 240.683 16.0612Z" fill="#FF7A00"/>
<path d="M109.474 78.869C108.737 83.056 106.677 86.3876 103.294 88.8638C99.9117 91.34 96.0305 92.5556 91.6506 92.5106C91.3471 92.5106 91.0435 92.5106 90.74 92.5106C90.4798 92.5106 90.1979 92.4881 89.8943 92.443C89.7209 92.443 89.5257 92.4205 89.3089 92.3755C89.1355 92.3755 88.9403 92.353 88.7235 92.308C86.5552 92.0829 84.4737 91.6326 82.4789 90.9573C80.4841 90.282 79.0313 89.1114 78.1207 87.4456C78.0339 87.3106 77.9689 87.0629 77.9255 86.7028C77.8822 86.2976 77.8605 85.8699 77.8605 85.4196C77.8605 85.0595 77.8605 84.7218 77.8605 84.4067C77.9038 84.0915 77.9472 83.8439 77.9906 83.6638C78.2074 82.8984 78.8579 82.2681 79.942 81.7729C81.0695 81.2776 82.2621 81.03 83.5196 81.03C83.6064 81.03 83.6931 81.03 83.7798 81.03C83.9099 81.03 84.0183 81.03 84.1051 81.03C85.753 81.1201 87.0322 81.6153 87.9429 82.5157C88.8536 83.4162 89.5257 84.3841 89.9594 85.4196C90.0895 85.7348 90.1979 86.0499 90.2846 86.3651C90.3714 86.6802 90.4581 86.9729 90.5448 87.243C90.6749 87.8283 90.8917 88.256 91.1953 88.5261C91.5422 88.7513 91.9325 88.8638 92.3662 88.8638C92.5396 88.8638 92.7131 88.8413 92.8866 88.7963C93.1034 88.7513 93.2985 88.7062 93.472 88.6612C94.2092 88.3461 94.8814 87.8058 95.4885 87.0404C96.139 86.2751 96.4642 85.4422 96.4642 84.5417C96.4208 84.2716 96.3558 84.024 96.269 83.7989C96.2257 83.5287 96.1606 83.2811 96.0739 83.056C95.5102 81.6153 94.5128 80.1971 93.0817 78.8014C91.6506 77.4058 90.1112 76.0326 88.4633 74.6819C87.8562 74.1417 87.2274 73.6239 86.5769 73.1287C85.9264 72.5884 85.3193 72.0707 84.7556 71.5755C82.8475 69.9547 81.308 67.8161 80.1372 65.1599C79.0097 62.4585 78.3809 59.6897 78.2508 56.8533C78.2508 56.7183 78.2508 56.5832 78.2508 56.4481C78.2508 56.2681 78.2508 56.1105 78.2508 55.9754C78.2508 51.8334 79.5517 48.0966 82.1536 44.765C84.7989 41.4334 89.1571 39.7676 95.2283 39.7676C95.9221 39.7676 96.6593 39.8351 97.4399 39.9702C98.2639 40.0602 99.0878 40.2178 99.9117 40.4429C102.037 41.0282 103.988 41.9061 105.766 43.0767C107.544 44.2472 108.433 45.5304 108.433 46.926C108.433 48.0066 107.869 48.8845 106.742 49.5598C105.614 50.2351 104.378 50.5953 103.034 50.6403C102.991 50.6403 102.926 50.6403 102.839 50.6403C102.796 50.6403 102.752 50.6403 102.709 50.6403C101.798 50.6403 100.952 50.4828 100.172 50.1676C99.3913 49.8525 98.7842 49.3347 98.3506 48.6144C98.2205 48.3892 98.1121 48.1641 98.0253 47.939C97.9386 47.6689 97.8736 47.4213 97.8302 47.1962C97.8302 47.1061 97.8085 47.0386 97.7652 46.9936C97.7652 46.9035 97.7435 46.8135 97.7001 46.7234C97.6567 46.4083 97.5917 46.1156 97.505 45.8455C97.4182 45.5304 97.2881 45.2602 97.1147 45.0351C96.8111 44.6749 96.3991 44.4048 95.8788 44.2247C95.4017 44.0446 94.8814 43.9546 94.3176 43.9546C94.2742 43.9546 94.2309 43.9546 94.1875 43.9546C94.1875 43.9546 94.1658 43.9546 94.1225 43.9546C92.9082 43.9996 91.8675 44.4273 91.0002 45.2377C90.1762 46.0031 90.2413 46.881 91.1953 47.8715C91.282 47.9615 91.3688 48.0516 91.4555 48.1416C91.5422 48.2317 91.6506 48.3217 91.7807 48.4118C93.4286 50.0776 95.0548 51.6758 96.6593 53.2066C98.2639 54.6923 99.7816 56.1555 101.213 57.5962C103.685 60.2075 105.723 62.8862 107.327 65.6326C108.975 68.3339 109.799 71.4629 109.799 75.0196C109.799 75.6049 109.777 76.2352 109.734 76.9105C109.691 77.5408 109.604 78.1936 109.474 78.869Z" fill="#FF7A00"/>
<path d="M158.479 89.0664C158.479 89.6067 158.197 90.0569 157.634 90.4171C157.07 90.8223 156.419 91.0248 155.682 91.0248L138.119 91.0924C137.295 91.0474 136.623 90.8223 136.103 90.4171C135.582 90.0569 135.322 89.5842 135.322 88.9989C135.322 88.5487 135.582 88.1209 136.103 87.7158C136.623 87.3106 137.295 87.108 138.119 87.108L138.445 86.7028V63.8767H129.988V86.7703L130.574 87.1755C131.311 87.1755 131.961 87.3781 132.525 87.7833C133.089 88.1885 133.371 88.6162 133.371 89.0664C133.371 89.6517 133.089 90.1244 132.525 90.4846C131.961 90.8898 131.311 91.0924 130.574 91.0924L113.011 91.1599C112.187 91.1149 111.515 90.8898 110.994 90.4846C110.474 90.1244 110.214 89.6517 110.214 89.0664C110.214 88.6162 110.474 88.1885 110.994 87.7833C111.515 87.3781 112.187 87.1755 113.011 87.1755L113.466 86.7703V45.5754L112.946 45.1702C112.165 45.1702 111.493 44.9901 110.929 44.6299C110.409 44.2698 110.149 43.797 110.149 43.2117C110.149 42.6715 110.409 42.2213 110.929 41.8611C111.493 41.4559 112.165 41.2533 112.946 41.2533H130.509C131.289 41.2533 131.94 41.4559 132.46 41.8611C133.024 42.2213 133.306 42.6715 133.306 43.2117C133.306 43.797 133.024 44.2698 132.46 44.6299C131.94 44.9901 131.289 45.1702 130.509 45.1702L129.988 45.5754V60.5001H138.445V45.5079L137.924 45.1702C137.23 45.1702 136.601 44.9901 136.038 44.6299C135.474 44.2698 135.192 43.797 135.192 43.2117C135.192 42.6265 135.474 42.1537 136.038 41.7936C136.601 41.4334 137.23 41.2533 137.924 41.2533H155.487C156.311 41.2533 156.983 41.4334 157.504 41.7936C158.024 42.1537 158.284 42.6265 158.284 43.2117C158.284 43.797 158.024 44.2698 157.504 44.6299C156.983 44.9901 156.311 45.1702 155.487 45.1702L155.032 45.5079V86.7028L155.682 87.108C156.419 87.108 157.07 87.3106 157.634 87.7158C158.197 88.1209 158.479 88.5487 158.479 88.9989V89.0664Z" fill="#FF7A00"/>
<path d="M207.16 66.1053C207.16 73.3088 205.013 79.4768 200.72 84.6093C196.427 89.7417 191.245 92.308 185.174 92.308C179.059 92.308 173.856 89.7417 169.562 84.6093C165.269 79.4768 163.123 73.3088 163.123 66.1053C163.123 58.8118 165.269 52.5988 169.562 47.4663C173.856 42.3338 179.059 39.7676 185.174 39.7676C191.245 39.7676 196.427 42.3338 200.72 47.4663C205.013 52.5988 207.16 58.8118 207.16 66.1053ZM189.532 85.2846C189.532 85.0595 189.445 84.8794 189.272 84.7443C189.142 84.5642 188.99 84.4067 188.817 84.2716C188.6 84.1365 188.405 83.9789 188.231 83.7989C188.101 83.6188 188.036 83.4387 188.036 83.2586V47.1286C188.036 46.2732 187.646 45.6429 186.865 45.2377C186.128 44.8325 185.282 44.6299 184.328 44.6299C184.285 44.6299 184.242 44.6299 184.198 44.6299C184.198 44.6299 184.176 44.6299 184.133 44.6299C183.309 44.675 182.529 44.9001 181.791 45.3053C181.098 45.7105 180.751 46.3182 180.751 47.1286C180.751 47.2187 180.772 47.3312 180.816 47.4663C180.859 47.5563 180.924 47.6464 181.011 47.7364C181.054 47.8265 181.119 47.939 181.206 48.0741C181.336 48.1641 181.444 48.2542 181.531 48.3442C181.748 48.5243 181.921 48.6819 182.052 48.817C182.225 48.952 182.312 49.0196 182.312 49.0196V85.3521C182.312 86.0725 182.68 86.6352 183.418 87.0404C184.155 87.4006 184.957 87.6032 185.824 87.6482C185.868 87.6482 185.889 87.6482 185.889 87.6482C185.933 87.6482 185.976 87.6482 186.019 87.6482C186.93 87.6482 187.732 87.4681 188.426 87.108C189.163 86.7028 189.532 86.095 189.532 85.2846Z" fill="#FF7A00"/>
<path d="M253.674 57.9339C253.674 62.4811 251.94 66.3979 248.471 69.6845C245.001 72.9711 240.838 74.6144 235.981 74.6144H228.696V86.7028L229.412 87.108C230.149 87.108 230.799 87.3106 231.363 87.7158C231.927 88.1209 232.209 88.5487 232.209 88.9989C232.209 89.5842 231.927 90.0794 231.363 90.4846C230.799 90.8898 230.149 91.0924 229.412 91.0924L211.849 91.1599C211.025 91.1149 210.352 90.8898 209.832 90.4846C209.355 90.0794 209.117 89.5842 209.117 88.9989C209.117 88.5487 209.355 88.1209 209.832 87.7158C210.352 87.3106 211.025 87.108 211.849 87.108L212.434 86.7028V45.5754L211.784 45.1702C211.003 45.1702 210.331 44.9901 209.767 44.6299C209.247 44.2247 208.986 43.7295 208.986 43.1442C208.986 42.6039 209.247 42.1312 209.767 41.726C210.331 41.3208 211.003 41.1182 211.784 41.1182H236.046C240.903 41.1182 245.045 42.7615 248.471 46.0481C251.94 49.3347 253.674 53.2966 253.674 57.9339ZM234.745 67.9962V48.2092C234.745 47.3537 234.355 46.7234 233.575 46.3182C232.837 45.913 232.013 45.7105 231.103 45.7105C230.192 45.7105 229.368 45.9356 228.631 46.3858C227.894 46.791 227.525 47.3988 227.525 48.2092C227.525 48.3892 227.59 48.5468 227.72 48.6819C227.85 48.817 228.002 48.952 228.176 49.0871C228.219 49.0871 228.241 49.0871 228.241 49.0871C228.241 49.0871 228.262 49.1096 228.306 49.1546C228.479 49.2897 228.631 49.4247 228.761 49.5598C228.935 49.6949 229.021 49.875 229.021 50.1001V65.8352C229.021 66.0153 228.935 66.1954 228.761 66.3754C228.631 66.5555 228.479 66.7131 228.306 66.8482C228.089 66.9832 227.894 67.1408 227.72 67.3209C227.59 67.456 227.525 67.636 227.525 67.8612C227.525 68.7166 227.894 69.3469 228.631 69.7521C229.368 70.1122 230.17 70.2923 231.038 70.2923C231.081 70.2923 231.103 70.2923 231.103 70.2923C231.146 70.2923 231.19 70.2923 231.233 70.2923C232.1 70.2473 232.902 70.0222 233.64 69.617C234.377 69.2118 234.745 68.6715 234.745 67.9962Z" fill="#FF7A00"/>
<circle cx="278.581" cy="83.5114" r="9.41861" fill="#FF7A00"/>
</g>
</svg>
