<svg width="50" height="32" viewBox="0 0 50 32" fill="none" xmlns="http://www.w3.org/2000/svg">
<path fill-rule="evenodd" clip-rule="evenodd" d="M11.7804 7.98681C12.5206 6.60135 14.0078 5.63623 15.7605 5.63623C17.5133 5.63623 19.0005 6.60135 19.7407 7.98681L15.7606 7.98681H15.7605L11.7804 7.98681ZM22.1134 8.7167C22.0618 8.46781 21.9954 8.2242 21.915 7.98681C21.0597 5.45941 18.6274 3.63623 15.7605 3.63623C12.8936 3.63623 10.4614 5.45941 9.60605 7.98681C9.52571 8.2242 9.45928 8.46781 9.40771 8.7167H3.42876C3.10573 8.7167 2.86748 9.01841 2.94238 9.33263L7.24532 27.3844C7.29899 27.6096 7.50021 27.7684 7.73169 27.7684H23.7895C24.021 27.7684 24.2222 27.6096 24.2758 27.3844L28.5788 9.33263C28.6537 9.01841 28.4154 8.7167 28.0924 8.7167H22.1134ZM9.27803 9.98681H4.35395L8.19819 26.1143C8.25187 26.3394 8.45308 26.4983 8.68457 26.4983H22.8366C23.0681 26.4983 23.2693 26.3394 23.323 26.1143L27.1672 9.98681H11.278H9.27803Z" fill="white"/>
<path d="M42.6517 25.144C41.3557 25.144 40.1957 24.8 39.1717 24.112C38.1637 23.424 37.3717 22.44 36.7957 21.16C36.2357 19.864 35.9557 18.344 35.9557 16.6C35.9557 14.856 36.2357 13.344 36.7957 12.064C37.3717 10.768 38.1637 9.776 39.1717 9.088C40.1957 8.4 41.3557 8.056 42.6517 8.056C43.9477 8.056 45.0997 8.4 46.1077 9.088C47.1317 9.776 47.9317 10.768 48.5077 12.064C49.0837 13.344 49.3717 14.856 49.3717 16.6C49.3717 18.344 49.0837 19.864 48.5077 21.16C47.9317 22.44 47.1317 23.424 46.1077 24.112C45.0997 24.8 43.9477 25.144 42.6517 25.144ZM42.6517 23.56C43.6277 23.56 44.4837 23.288 45.2197 22.744C45.9717 22.2 46.5557 21.408 46.9717 20.368C47.3877 19.328 47.5957 18.072 47.5957 16.6C47.5957 15.128 47.3877 13.872 46.9717 12.832C46.5557 11.792 45.9717 11 45.2197 10.456C44.4837 9.912 43.6277 9.64 42.6517 9.64C41.6757 9.64 40.8117 9.912 40.0597 10.456C39.3237 11 38.7477 11.792 38.3317 12.832C37.9157 13.872 37.7077 15.128 37.7077 16.6C37.7077 18.072 37.9157 19.328 38.3317 20.368C38.7477 21.408 39.3237 22.2 40.0597 22.744C40.8117 23.288 41.6757 23.56 42.6517 23.56Z" fill="white"/>
</svg>
